<svg xmlns="http://www.w3.org/2000/svg" version="1.1" xmlns:xlink="http://www.w3.org/1999/xlink" xmlns:svgjs="http://svgjs.dev/svgjs" width="1500" height="1500" viewBox="0 0 1500 1500"><rect width="1500" height="1500" fill="#ffffff"></rect><g transform="matrix(0.6666666666666666,0,0,0.6666666666666666,249.7363255551832,635.2667977430556)"><svg viewBox="0 0 301 69" data-background-color="#ffffff" preserveAspectRatio="xMidYMid meet" height="343" width="1500" xmlns="http://www.w3.org/2000/svg" xmlns:xlink="http://www.w3.org/1999/xlink"><g id="tight-bounds" transform="matrix(1,0,0,1,0.0793660078898597,0.12066015625001114)"><svg viewBox="0 0 300.8412679842203 68.75867968749999" height="68.75867968749999" width="300.8412679842203"><g><svg viewBox="0 0 300.8412679842203 68.75867968749999" height="68.75867968749999" width="300.8412679842203"><g><svg viewBox="0 0 300.8412679842203 68.75867968749999" height="68.75867968749999" width="300.8412679842203"><g id="textblocktransform"><svg viewBox="0 0 300.8412679842203 68.75867968749999" height="68.75867968749999" width="300.8412679842203" id="textblock"><g><svg viewBox="0 0 300.8412679842203 68.75867968749999" height="68.75867968749999" width="300.8412679842203"><g><svg><g></g><g></g></svg></g><g><svg><g></g><g><svg></svg></g></svg></g><g id="text-0"><svg viewBox="0 0 300.8412679842203 68.75867968749999" height="68.75867968749999" width="300.8412679842203"><g><svg xmlns="http://www.w3.org/2000/svg" xmlns:xlink="http://www.w3.org/1999/xlink" version="1.1" x="0" y="0" viewBox="14.2 14.2 71.6 80.8" enable-background="new 0 0 100 100" xml:space="preserve" height="68.75867968749999" width="60.92972110922029" class="icon-cg-0" data-fill-palette-color="accent" id="cg-0"></svg></g><g transform="matrix(1,0,0,1,78.57483829672029,0)"><svg width="222.2664296875" viewBox="2.08 -36.04 149.78 46.2" height="68.75867968749999" data-palette-color="url(#870a438a-5248-4c8d-8dab-d1abf144afbd)"><g class="wordmark-text-0" data-fill-palette-color="primary"></g></svg></g></svg></g></svg></g></svg></g></svg></g><g></g></svg></g><defs></defs><mask id="964ee9bb-9e3b-4eac-98b5-d3178d86e7b8"><g id="SvgjsG1116"><svg viewBox="0 0 300.8412679842203 68.75867968749999" height="68.75867968749999" width="300.8412679842203"><g><svg viewBox="0 0 300.8412679842203 68.75867968749999" height="68.75867968749999" width="300.8412679842203"><g><svg viewBox="0 0 300.8412679842203 68.75867968749999" height="68.75867968749999" width="300.8412679842203"><g id="SvgjsG1115"><svg viewBox="0 0 300.8412679842203 68.75867968749999" height="68.75867968749999" width="300.8412679842203" id="SvgjsSvg1114"><g><svg viewBox="0 0 300.8412679842203 68.75867968749999" height="68.75867968749999" width="300.8412679842203"><g><svg><g></g><g></g></svg></g><g><svg><g></g><g><svg></svg></g></svg></g><g id="SvgjsG1113"><svg viewBox="0 0 300.8412679842203 68.75867968749999" height="68.75867968749999" width="300.8412679842203"><g><svg xmlns="http://www.w3.org/2000/svg" xmlns:xlink="http://www.w3.org/1999/xlink" version="1.1" x="0" y="0" viewBox="14.2 14.2 71.6 80.8" enable-background="new 0 0 100 100" xml:space="preserve" height="68.75867968749999" width="60.92972110922029" class="icon-cg-0" data-fill-palette-color="accent" id="SvgjsSvg1112"><path d="M80.8 50c0 1.4 1.1 2.5 2.5 2.5s2.5-1.1 2.5-2.5c0-9.6-3.7-18.6-10.5-25.3C68.6 17.9 59.6 14.2 50 14.2s-18.6 3.7-25.3 10.5C17.9 31.4 14.2 40.4 14.2 50s3.7 18.6 10.5 25.3c6.2 6.2 14.2 9.8 22.9 10.4v6.8c0 0.9 0.5 1.7 1.3 2.2 0.4 0.2 0.8 0.3 1.3 0.3s0.9-0.1 1.3-0.3l15.9-9.2c0.8-0.4 1.3-1.3 1.3-2.2s-0.5-1.7-1.3-2.2l-15.9-9.2c-0.8-0.4-1.7-0.4-2.5 0-0.8 0.4-1.3 1.3-1.3 2.2v6.6c-7.3-0.6-14.1-3.7-19.3-8.9-5.8-5.8-9-13.6-9-21.8s3.2-16 9-21.8c5.8-5.8 13.6-9 21.8-9s16 3.2 21.8 9C77.6 34 80.8 41.8 80.8 50zM52.6 78.4l8.4 4.9-8.4 4.9V78.4z" fill="black"></path><path d="M37.5 50c0 6.9 5.6 12.5 12.5 12.5S62.5 56.9 62.5 50 56.9 37.5 50 37.5 37.5 43.1 37.5 50zM57.5 50c0 4.1-3.4 7.5-7.5 7.5s-7.5-3.4-7.5-7.5 3.4-7.5 7.5-7.5S57.5 45.9 57.5 50z" fill="black"></path></svg></g><g transform="matrix(1,0,0,1,78.57483829672029,0)"><svg width="222.2664296875" viewBox="2.08 -36.04 149.78 46.2" height="68.75867968749999" data-palette-color="url(#870a438a-5248-4c8d-8dab-d1abf144afbd)"><g class="wordmark-text-0" data-fill-palette-color="primary"><path d="M19.36-8.98L19.36-8.98Q19.36-11.65 17.92-13.06 16.48-14.48 12.72-15.82 8.96-17.16 6.97-18.64 4.98-20.12 3.99-22.01 3-23.9 3-26.34L3-26.34Q3-30.57 5.82-33.3 8.64-36.04 13.21-36.04L13.21-36.04Q16.33-36.04 18.77-34.63 21.22-33.23 22.53-30.74 23.85-28.25 23.85-25.27L23.85-25.27 19.36-25.27Q19.36-28.56 17.77-30.37 16.19-32.18 13.21-32.18L13.21-32.18Q10.5-32.18 9.01-30.66 7.52-29.15 7.52-26.42L7.52-26.42Q7.52-24.17 9.13-22.66 10.74-21.14 14.11-19.95L14.11-19.95Q19.36-18.21 21.62-15.67 23.88-13.13 23.88-9.03L23.88-9.03Q23.88-4.71 21.07-2.11 18.26 0.49 13.43 0.49L13.43 0.49Q10.33 0.49 7.7-0.87 5.08-2.22 3.58-4.68 2.08-7.13 2.08-10.3L2.08-10.3 6.57-10.3Q6.57-7.01 8.41-5.18 10.25-3.34 13.43-3.34L13.43-3.34Q16.38-3.34 17.87-4.86 19.36-6.37 19.36-8.98ZM48.22-14.82L48.22-11.94Q48.22-5.66 45.96-2.59 43.7 0.49 39.57 0.49L39.57 0.49Q35.59 0.49 33.44-2.51L33.44-2.51 33.44 10.16 29.15 10.16 29.15-26.42 33.05-26.42 33.27-23.49Q35.45-26.9 39.5-26.9L39.5-26.9Q43.85-26.9 45.99-23.88 48.14-20.85 48.22-14.82L48.22-14.82ZM43.92-11.77L43.92-14.4Q43.92-18.85 42.55-20.96 41.18-23.07 38.16-23.07L38.16-23.07Q35.06-23.07 33.44-19.97L33.44-19.97 33.44-6.23Q35.03-3.2 38.21-3.2L38.21-3.2Q41.14-3.2 42.51-5.31 43.89-7.42 43.92-11.77L43.92-11.77ZM58.44-26.42L58.44 0 54.12 0 54.12-26.42 58.44-26.42ZM58.78-33.42L58.78-33.42Q58.78-32.32 58.17-31.59 57.56-30.86 56.32-30.86L56.32-30.86Q55.1-30.86 54.49-31.59 53.88-32.32 53.88-33.42 53.88-34.52 54.49-35.28 55.1-36.04 56.32-36.04 57.54-36.04 58.16-35.27 58.78-34.5 58.78-33.42ZM65.23-26.42L69.3-26.42 69.43-23.56Q71.94-26.9 75.85-26.9L75.85-26.9Q82.85-26.9 82.95-17.55L82.95-17.55 82.95 0 78.65 0 78.65-17.36Q78.65-20.46 77.62-21.77 76.58-23.07 74.5-23.07L74.5-23.07Q72.89-23.07 71.61-22 70.33-20.92 69.55-19.19L69.55-19.19 69.55 0 65.23 0 65.23-26.42ZM101.67-13.92L94.5-13.92 94.5 0 90.03 0 90.03-35.55 101.36-35.55Q106.31-35.55 109.15-32.58 111.98-29.61 111.98-24.68L111.98-24.68Q111.98-19.56 109.28-16.78 106.58-14.01 101.67-13.92L101.67-13.92ZM94.5-31.69L94.5-17.75 101.36-17.75Q104.34-17.75 105.92-19.53 107.51-21.31 107.51-24.63L107.51-24.63Q107.51-27.83 105.87-29.76 104.24-31.69 101.38-31.69L101.38-31.69 94.5-31.69ZM128.01-26.56L128.04-22.36Q127.14-22.53 126.09-22.53L126.09-22.53Q122.77-22.53 121.45-18.9L121.45-18.9 121.45 0 117.13 0 117.13-26.42 121.33-26.42 121.4-23.73Q123.13-26.9 126.31-26.9L126.31-26.9Q127.33-26.9 128.01-26.56L128.01-26.56ZM131.43-11.55L131.43-14.43Q131.43-20.19 134.23-23.55 137.02-26.9 141.61-26.9 146.2-26.9 149-23.63 151.79-20.36 151.86-14.72L151.86-14.72 151.86-11.94Q151.86-6.2 149.08-2.86 146.3 0.49 141.66 0.49L141.66 0.49Q137.07 0.49 134.3-2.76 131.53-6.01 131.43-11.55L131.43-11.55ZM135.75-14.45L135.75-11.94Q135.75-7.86 137.35-5.53 138.95-3.2 141.66-3.2L141.66-3.2Q147.37-3.2 147.54-11.45L147.54-11.45 147.54-14.43Q147.54-18.48 145.93-20.84 144.32-23.19 141.61-23.19L141.61-23.19Q138.95-23.19 137.35-20.84 135.75-18.48 135.75-14.45L135.75-14.45Z" fill="white"></path></g></svg></g></svg></g></svg></g></svg></g></svg></g><g></g></svg></g><defs><mask></mask></defs></svg><rect width="300.8412679842203" height="68.75867968749999" fill="black" stroke="none" visibility="hidden"></rect></g></mask><linearGradient x1="0.054" x2="0.941" y1="0.5" y2="0.5" id="870a438a-5248-4c8d-8dab-d1abf144afbd"><stop stop-color="#0f3054" offset="0"></stop><stop stop-color="#3b8dcb" offset="0.498"></stop><stop stop-color="#0f3054" offset="1"></stop></linearGradient><rect width="300.8412679842203" height="68.75867968749999" fill="url(#870a438a-5248-4c8d-8dab-d1abf144afbd)" mask="url(#964ee9bb-9e3b-4eac-98b5-d3178d86e7b8)" data-fill-palette-color="primary"></rect><mask id="312d227b-4789-4523-b6ba-f6757ef19f10"><g id="SvgjsG1126"><svg viewBox="0 0 300.8412679842203 68.75867968749999" height="68.75867968749999" width="300.8412679842203"><g><svg viewBox="0 0 300.8412679842203 68.75867968749999" height="68.75867968749999" width="300.8412679842203"><g><svg viewBox="0 0 300.8412679842203 68.75867968749999" height="68.75867968749999" width="300.8412679842203"><g id="SvgjsG1125"><svg viewBox="0 0 300.8412679842203 68.75867968749999" height="68.75867968749999" width="300.8412679842203" id="SvgjsSvg1124"><g><svg viewBox="0 0 300.8412679842203 68.75867968749999" height="68.75867968749999" width="300.8412679842203"><g><svg><g></g><g></g></svg></g><g><svg><g></g><g><svg></svg></g></svg></g><g id="SvgjsG1123"><svg viewBox="0 0 300.8412679842203 68.75867968749999" height="68.75867968749999" width="300.8412679842203"><g><svg xmlns="http://www.w3.org/2000/svg" xmlns:xlink="http://www.w3.org/1999/xlink" version="1.1" x="0" y="0" viewBox="14.2 14.2 71.6 80.8" enable-background="new 0 0 100 100" xml:space="preserve" height="68.75867968749999" width="60.92972110922029" class="icon-cg-0" data-fill-palette-color="accent" id="SvgjsSvg1122"><path d="M80.8 50c0 1.4 1.1 2.5 2.5 2.5s2.5-1.1 2.5-2.5c0-9.6-3.7-18.6-10.5-25.3C68.6 17.9 59.6 14.2 50 14.2s-18.6 3.7-25.3 10.5C17.9 31.4 14.2 40.4 14.2 50s3.7 18.6 10.5 25.3c6.2 6.2 14.2 9.8 22.9 10.4v6.8c0 0.9 0.5 1.7 1.3 2.2 0.4 0.2 0.8 0.3 1.3 0.3s0.9-0.1 1.3-0.3l15.9-9.2c0.8-0.4 1.3-1.3 1.3-2.2s-0.5-1.7-1.3-2.2l-15.9-9.2c-0.8-0.4-1.7-0.4-2.5 0-0.8 0.4-1.3 1.3-1.3 2.2v6.6c-7.3-0.6-14.1-3.7-19.3-8.9-5.8-5.8-9-13.6-9-21.8s3.2-16 9-21.8c5.8-5.8 13.6-9 21.8-9s16 3.2 21.8 9C77.6 34 80.8 41.8 80.8 50zM52.6 78.4l8.4 4.9-8.4 4.9V78.4z" fill="white"></path><path d="M37.5 50c0 6.9 5.6 12.5 12.5 12.5S62.5 56.9 62.5 50 56.9 37.5 50 37.5 37.5 43.1 37.5 50zM57.5 50c0 4.1-3.4 7.5-7.5 7.5s-7.5-3.4-7.5-7.5 3.4-7.5 7.5-7.5S57.5 45.9 57.5 50z" fill="white"></path></svg></g><g transform="matrix(1,0,0,1,78.57483829672029,0)"><svg width="222.2664296875" viewBox="2.08 -36.04 149.78 46.2" height="68.75867968749999" data-palette-color="url(#870a438a-5248-4c8d-8dab-d1abf144afbd)"><g class="wordmark-text-0" data-fill-palette-color="primary"></g></svg></g></svg></g></svg></g></svg></g></svg></g><g></g></svg></g><defs><mask></mask></defs><mask><g id="SvgjsG1121"><svg viewBox="0 0 300.8412679842203 68.75867968749999" height="68.75867968749999" width="300.8412679842203"><g><svg viewBox="0 0 300.8412679842203 68.75867968749999" height="68.75867968749999" width="300.8412679842203"><g><svg viewBox="0 0 300.8412679842203 68.75867968749999" height="68.75867968749999" width="300.8412679842203"><g id="SvgjsG1120"><svg viewBox="0 0 300.8412679842203 68.75867968749999" height="68.75867968749999" width="300.8412679842203" id="SvgjsSvg1119"><g><svg viewBox="0 0 300.8412679842203 68.75867968749999" height="68.75867968749999" width="300.8412679842203"><g><svg><g></g><g></g></svg></g><g><svg><g></g><g><svg></svg></g></svg></g><g id="SvgjsG1118"><svg viewBox="0 0 300.8412679842203 68.75867968749999" height="68.75867968749999" width="300.8412679842203"><g><svg xmlns="http://www.w3.org/2000/svg" xmlns:xlink="http://www.w3.org/1999/xlink" version="1.1" x="0" y="0" viewBox="14.2 14.2 71.6 80.8" enable-background="new 0 0 100 100" xml:space="preserve" height="68.75867968749999" width="60.92972110922029" class="icon-cg-0" data-fill-palette-color="accent" id="SvgjsSvg1117"><path d="M80.8 50c0 1.4 1.1 2.5 2.5 2.5s2.5-1.1 2.5-2.5c0-9.6-3.7-18.6-10.5-25.3C68.6 17.9 59.6 14.2 50 14.2s-18.6 3.7-25.3 10.5C17.9 31.4 14.2 40.4 14.2 50s3.7 18.6 10.5 25.3c6.2 6.2 14.2 9.8 22.9 10.4v6.8c0 0.9 0.5 1.7 1.3 2.2 0.4 0.2 0.8 0.3 1.3 0.3s0.9-0.1 1.3-0.3l15.9-9.2c0.8-0.4 1.3-1.3 1.3-2.2s-0.5-1.7-1.3-2.2l-15.9-9.2c-0.8-0.4-1.7-0.4-2.5 0-0.8 0.4-1.3 1.3-1.3 2.2v6.6c-7.3-0.6-14.1-3.7-19.3-8.9-5.8-5.8-9-13.6-9-21.8s3.2-16 9-21.8c5.8-5.8 13.6-9 21.8-9s16 3.2 21.8 9C77.6 34 80.8 41.8 80.8 50zM52.6 78.4l8.4 4.9-8.4 4.9V78.4z" fill="black"></path><path d="M37.5 50c0 6.9 5.6 12.5 12.5 12.5S62.5 56.9 62.5 50 56.9 37.5 50 37.5 37.5 43.1 37.5 50zM57.5 50c0 4.1-3.4 7.5-7.5 7.5s-7.5-3.4-7.5-7.5 3.4-7.5 7.5-7.5S57.5 45.9 57.5 50z" fill="black"></path></svg></g><g transform="matrix(1,0,0,1,78.57483829672029,0)"><svg width="222.2664296875" viewBox="2.08 -36.04 149.78 46.2" height="68.75867968749999" data-palette-color="url(#870a438a-5248-4c8d-8dab-d1abf144afbd)"><g class="wordmark-text-0" data-fill-palette-color="primary"><path d="M19.36-8.98L19.36-8.98Q19.36-11.65 17.92-13.06 16.48-14.48 12.72-15.82 8.96-17.16 6.97-18.64 4.98-20.12 3.99-22.01 3-23.9 3-26.34L3-26.34Q3-30.57 5.82-33.3 8.64-36.04 13.21-36.04L13.21-36.04Q16.33-36.04 18.77-34.63 21.22-33.23 22.53-30.74 23.85-28.25 23.85-25.27L23.85-25.27 19.36-25.27Q19.36-28.56 17.77-30.37 16.19-32.18 13.21-32.18L13.21-32.18Q10.5-32.18 9.01-30.66 7.52-29.15 7.52-26.42L7.52-26.42Q7.52-24.17 9.13-22.66 10.74-21.14 14.11-19.95L14.11-19.95Q19.36-18.21 21.62-15.67 23.88-13.13 23.88-9.03L23.88-9.03Q23.88-4.71 21.07-2.11 18.26 0.49 13.43 0.49L13.43 0.49Q10.33 0.49 7.7-0.87 5.08-2.22 3.58-4.68 2.08-7.13 2.08-10.3L2.08-10.3 6.57-10.3Q6.57-7.01 8.41-5.18 10.25-3.34 13.43-3.34L13.43-3.34Q16.38-3.34 17.87-4.86 19.36-6.37 19.36-8.98ZM48.22-14.82L48.22-11.94Q48.22-5.66 45.96-2.59 43.7 0.49 39.57 0.49L39.57 0.49Q35.59 0.49 33.44-2.51L33.44-2.51 33.44 10.16 29.15 10.16 29.15-26.42 33.05-26.42 33.27-23.49Q35.45-26.9 39.5-26.9L39.5-26.9Q43.85-26.9 45.99-23.88 48.14-20.85 48.22-14.82L48.22-14.82ZM43.92-11.77L43.92-14.4Q43.92-18.85 42.55-20.96 41.18-23.07 38.16-23.07L38.16-23.07Q35.06-23.07 33.44-19.97L33.44-19.97 33.44-6.23Q35.03-3.2 38.21-3.2L38.21-3.2Q41.14-3.2 42.51-5.31 43.89-7.42 43.92-11.77L43.92-11.77ZM58.44-26.42L58.44 0 54.12 0 54.12-26.42 58.44-26.42ZM58.78-33.42L58.78-33.42Q58.78-32.32 58.17-31.59 57.56-30.86 56.32-30.86L56.32-30.86Q55.1-30.86 54.49-31.59 53.88-32.32 53.88-33.42 53.88-34.52 54.49-35.28 55.1-36.04 56.32-36.04 57.54-36.04 58.16-35.27 58.78-34.5 58.78-33.42ZM65.23-26.42L69.3-26.42 69.43-23.56Q71.94-26.9 75.85-26.9L75.85-26.9Q82.85-26.9 82.95-17.55L82.95-17.55 82.95 0 78.65 0 78.65-17.36Q78.65-20.46 77.62-21.77 76.58-23.07 74.5-23.07L74.5-23.07Q72.89-23.07 71.61-22 70.33-20.92 69.55-19.19L69.55-19.19 69.55 0 65.23 0 65.23-26.42ZM101.67-13.92L94.5-13.92 94.5 0 90.03 0 90.03-35.55 101.36-35.55Q106.31-35.55 109.15-32.58 111.98-29.61 111.98-24.68L111.98-24.68Q111.98-19.56 109.28-16.78 106.58-14.01 101.67-13.92L101.67-13.92ZM94.5-31.69L94.5-17.75 101.36-17.75Q104.34-17.75 105.92-19.53 107.51-21.31 107.51-24.63L107.51-24.63Q107.51-27.83 105.87-29.76 104.24-31.69 101.38-31.69L101.38-31.69 94.5-31.69ZM128.01-26.56L128.04-22.36Q127.14-22.53 126.09-22.53L126.09-22.53Q122.77-22.53 121.45-18.9L121.45-18.9 121.45 0 117.13 0 117.13-26.42 121.33-26.42 121.4-23.73Q123.13-26.9 126.31-26.9L126.31-26.9Q127.33-26.9 128.01-26.56L128.01-26.56ZM131.43-11.55L131.43-14.43Q131.43-20.19 134.23-23.55 137.02-26.9 141.61-26.9 146.2-26.9 149-23.63 151.79-20.36 151.86-14.72L151.86-14.72 151.86-11.94Q151.86-6.2 149.08-2.86 146.3 0.49 141.66 0.49L141.66 0.49Q137.07 0.49 134.3-2.76 131.53-6.01 131.43-11.55L131.43-11.55ZM135.75-14.45L135.75-11.94Q135.75-7.86 137.35-5.53 138.95-3.2 141.66-3.2L141.66-3.2Q147.37-3.2 147.54-11.45L147.54-11.45 147.54-14.43Q147.54-18.48 145.93-20.84 144.32-23.19 141.61-23.19L141.61-23.19Q138.95-23.19 137.35-20.84 135.75-18.48 135.75-14.45L135.75-14.45Z" fill="black"></path></g></svg></g></svg></g></svg></g></svg></g></svg></g><g></g></svg></g><defs><mask></mask></defs></svg><rect width="300.8412679842203" height="68.75867968749999" fill="black" stroke="none" visibility="hidden"></rect></g></mask></svg><rect width="300.8412679842203" height="68.75867968749999" fill="black" stroke="none" visibility="hidden"></rect></g></mask><linearGradient x1="0.054" x2="0.941" y1="0.5" y2="0.5" id="425e95b4-d492-445b-9709-cbe66de3f94a"><stop stop-color="#0f3054" offset="0"></stop><stop stop-color="#3b8dcb" offset="0.498"></stop><stop stop-color="#0f3054" offset="1"></stop></linearGradient><rect width="300.8412679842203" height="68.75867968749999" fill="url(#425e95b4-d492-445b-9709-cbe66de3f94a)" mask="url(#312d227b-4789-4523-b6ba-f6757ef19f10)" data-fill-palette-color="accent"></rect></svg><rect width="300.8412679842203" height="68.75867968749999" fill="none" stroke="none" visibility="hidden"></rect></g></svg></g></svg>